<mxfile host="app.diagrams.net" modified="2022-04-27T08:35:25.791Z" agent="5.0 (Macintosh; Intel Mac OS X 10_15_7) AppleWebKit/605.1.15 (KHTML, like Gecko) Version/15.3 Safari/605.1.15" etag="-C8eUQQEkhSNmwaqaWDc" version="17.4.3" type="github">
  <diagram id="fK5hHXI_meAvLUZj9lbC" name="Page-1">
    <mxGraphModel dx="756" dy="846" grid="0" gridSize="10" guides="1" tooltips="1" connect="1" arrows="1" fold="1" page="0" pageScale="1" pageWidth="827" pageHeight="1169" math="0" shadow="0">
      <root>
        <mxCell id="0" />
        <mxCell id="1" parent="0" />
        <mxCell id="V0Qw61IKJjh0Ug3TLafj-57" value="" style="shape=cylinder3;whiteSpace=wrap;html=1;boundedLbl=1;backgroundOutline=1;size=15;rounded=0;shadow=0;glass=0;sketch=0;fillColor=#f5f5f5;fontColor=#333333;strokeColor=#666666;" parent="1" vertex="1">
          <mxGeometry x="1100" y="840" width="214" height="100" as="geometry" />
        </mxCell>
        <mxCell id="V0Qw61IKJjh0Ug3TLafj-20" value="" style="rounded=0;whiteSpace=wrap;html=1;shadow=0;glass=0;sketch=0;fillColor=none;dashed=1;dashPattern=1 1;" parent="1" vertex="1">
          <mxGeometry x="460" y="890" width="585" height="130" as="geometry" />
        </mxCell>
        <mxCell id="QDnQAPT0r1DDVJR2lLTe-117" value="" style="rounded=0;whiteSpace=wrap;html=1;gradientColor=none;fillColor=none;" parent="1" vertex="1">
          <mxGeometry x="206.25" y="451" width="287.5" height="95" as="geometry" />
        </mxCell>
        <mxCell id="QDnQAPT0r1DDVJR2lLTe-122" value="" style="edgeStyle=orthogonalEdgeStyle;rounded=0;orthogonalLoop=1;jettySize=auto;html=1;" parent="1" source="QDnQAPT0r1DDVJR2lLTe-2" target="QDnQAPT0r1DDVJR2lLTe-4" edge="1">
          <mxGeometry relative="1" as="geometry" />
        </mxCell>
        <mxCell id="QDnQAPT0r1DDVJR2lLTe-125" value="" style="edgeStyle=orthogonalEdgeStyle;rounded=0;orthogonalLoop=1;jettySize=auto;html=1;" parent="1" source="QDnQAPT0r1DDVJR2lLTe-2" target="QDnQAPT0r1DDVJR2lLTe-47" edge="1">
          <mxGeometry relative="1" as="geometry" />
        </mxCell>
        <mxCell id="QDnQAPT0r1DDVJR2lLTe-2" value="Training data" style="rounded=0;whiteSpace=wrap;html=1;" parent="1" vertex="1">
          <mxGeometry x="290" y="145" width="120" height="60" as="geometry" />
        </mxCell>
        <mxCell id="QDnQAPT0r1DDVJR2lLTe-138" value="" style="edgeStyle=orthogonalEdgeStyle;rounded=0;orthogonalLoop=1;jettySize=auto;html=1;" parent="1" source="QDnQAPT0r1DDVJR2lLTe-4" target="QDnQAPT0r1DDVJR2lLTe-137" edge="1">
          <mxGeometry relative="1" as="geometry" />
        </mxCell>
        <mxCell id="QDnQAPT0r1DDVJR2lLTe-4" value="Model Tuning &amp;amp; Training" style="rounded=0;whiteSpace=wrap;html=1;" parent="1" vertex="1">
          <mxGeometry x="290" y="250" width="120" height="60" as="geometry" />
        </mxCell>
        <mxCell id="QDnQAPT0r1DDVJR2lLTe-6" value="Mlflow" style="rounded=0;whiteSpace=wrap;html=1;" parent="1" vertex="1">
          <mxGeometry x="360" y="468.5" width="120" height="60" as="geometry" />
        </mxCell>
        <mxCell id="QDnQAPT0r1DDVJR2lLTe-126" value="" style="edgeStyle=orthogonalEdgeStyle;rounded=0;orthogonalLoop=1;jettySize=auto;html=1;" parent="1" source="QDnQAPT0r1DDVJR2lLTe-7" target="QDnQAPT0r1DDVJR2lLTe-47" edge="1">
          <mxGeometry relative="1" as="geometry" />
        </mxCell>
        <mxCell id="QDnQAPT0r1DDVJR2lLTe-7" value="New labeled data" style="rounded=0;whiteSpace=wrap;html=1;" parent="1" vertex="1">
          <mxGeometry x="430" y="50" width="120" height="60" as="geometry" />
        </mxCell>
        <mxCell id="QDnQAPT0r1DDVJR2lLTe-47" value="Data drift detection" style="rhombus;whiteSpace=wrap;html=1;" parent="1" vertex="1">
          <mxGeometry x="430" y="140" width="120" height="70" as="geometry" />
        </mxCell>
        <mxCell id="QDnQAPT0r1DDVJR2lLTe-105" value="" style="edgeStyle=orthogonalEdgeStyle;rounded=0;orthogonalLoop=1;jettySize=auto;html=1;exitX=0.5;exitY=1;exitDx=0;exitDy=0;" parent="1" source="gK53VHWFZF51HOCK_0e7-2" target="QDnQAPT0r1DDVJR2lLTe-61" edge="1">
          <mxGeometry relative="1" as="geometry">
            <mxPoint x="1100" y="130" as="sourcePoint" />
          </mxGeometry>
        </mxCell>
        <mxCell id="QDnQAPT0r1DDVJR2lLTe-108" value="Yes" style="edgeStyle=orthogonalEdgeStyle;rounded=0;orthogonalLoop=1;jettySize=auto;html=1;entryX=0;entryY=0.5;entryDx=0;entryDy=0;" parent="1" source="QDnQAPT0r1DDVJR2lLTe-61" target="gK53VHWFZF51HOCK_0e7-6" edge="1">
          <mxGeometry relative="1" as="geometry">
            <mxPoint x="1220" y="185" as="targetPoint" />
          </mxGeometry>
        </mxCell>
        <mxCell id="QDnQAPT0r1DDVJR2lLTe-112" value="" style="edgeStyle=orthogonalEdgeStyle;rounded=0;orthogonalLoop=1;jettySize=auto;html=1;" parent="1" source="QDnQAPT0r1DDVJR2lLTe-61" target="QDnQAPT0r1DDVJR2lLTe-109" edge="1">
          <mxGeometry relative="1" as="geometry" />
        </mxCell>
        <mxCell id="QDnQAPT0r1DDVJR2lLTe-113" value="No" style="edgeLabel;html=1;align=center;verticalAlign=middle;resizable=0;points=[];" parent="QDnQAPT0r1DDVJR2lLTe-112" vertex="1" connectable="0">
          <mxGeometry x="-0.1667" y="2" relative="1" as="geometry">
            <mxPoint y="1" as="offset" />
          </mxGeometry>
        </mxCell>
        <mxCell id="QDnQAPT0r1DDVJR2lLTe-61" value="Data drift detection" style="rhombus;whiteSpace=wrap;html=1;fillColor=#d5e8d4;strokeColor=#82b366;" parent="1" vertex="1">
          <mxGeometry x="1020" y="150" width="140" height="70" as="geometry" />
        </mxCell>
        <mxCell id="QDnQAPT0r1DDVJR2lLTe-71" value="MinIO Storage" style="rounded=0;whiteSpace=wrap;html=1;" parent="1" vertex="1">
          <mxGeometry x="220" y="468.5" width="120" height="60" as="geometry" />
        </mxCell>
        <mxCell id="QDnQAPT0r1DDVJR2lLTe-92" value="MinIO access control" style="rhombus;whiteSpace=wrap;html=1;" parent="1" vertex="1">
          <mxGeometry x="50" y="463.5" width="140" height="70" as="geometry" />
        </mxCell>
        <mxCell id="QDnQAPT0r1DDVJR2lLTe-103" value="" style="endArrow=classic;html=1;rounded=0;exitX=0.5;exitY=1;exitDx=0;exitDy=0;entryX=0.5;entryY=0;entryDx=0;entryDy=0;" parent="1" source="QDnQAPT0r1DDVJR2lLTe-143" edge="1">
          <mxGeometry width="50" height="50" relative="1" as="geometry">
            <mxPoint x="350.0000000000002" y="628.5" as="sourcePoint" />
            <mxPoint x="350.0000000000002" y="700" as="targetPoint" />
          </mxGeometry>
        </mxCell>
        <mxCell id="QDnQAPT0r1DDVJR2lLTe-107" value="" style="edgeStyle=orthogonalEdgeStyle;rounded=0;orthogonalLoop=1;jettySize=auto;html=1;exitX=1;exitY=0.5;exitDx=0;exitDy=0;exitPerimeter=0;" parent="1" source="gK53VHWFZF51HOCK_0e7-7" target="QDnQAPT0r1DDVJR2lLTe-61" edge="1">
          <mxGeometry relative="1" as="geometry">
            <mxPoint x="970" y="185" as="sourcePoint" />
          </mxGeometry>
        </mxCell>
        <mxCell id="QDnQAPT0r1DDVJR2lLTe-115" value="" style="edgeStyle=orthogonalEdgeStyle;rounded=0;orthogonalLoop=1;jettySize=auto;html=1;entryX=0.5;entryY=0;entryDx=0;entryDy=0;" parent="1" source="QDnQAPT0r1DDVJR2lLTe-109" target="gK53VHWFZF51HOCK_0e7-4" edge="1">
          <mxGeometry relative="1" as="geometry">
            <mxPoint x="1090" y="370" as="targetPoint" />
          </mxGeometry>
        </mxCell>
        <mxCell id="QDnQAPT0r1DDVJR2lLTe-109" value="Model &amp;nbsp;Service" style="rounded=0;whiteSpace=wrap;html=1;fillColor=#d5e8d4;strokeColor=#82b366;" parent="1" vertex="1">
          <mxGeometry x="1030" y="260" width="120" height="60" as="geometry" />
        </mxCell>
        <mxCell id="QDnQAPT0r1DDVJR2lLTe-119" value="" style="edgeStyle=orthogonalEdgeStyle;rounded=0;orthogonalLoop=1;jettySize=auto;html=1;" parent="1" source="QDnQAPT0r1DDVJR2lLTe-117" edge="1">
          <mxGeometry relative="1" as="geometry">
            <mxPoint x="349.9999999999998" y="568.5" as="targetPoint" />
          </mxGeometry>
        </mxCell>
        <mxCell id="QDnQAPT0r1DDVJR2lLTe-127" value="" style="endArrow=classic;html=1;rounded=0;exitX=0.5;exitY=1;exitDx=0;exitDy=0;entryX=1;entryY=0.5;entryDx=0;entryDy=0;" parent="1" source="QDnQAPT0r1DDVJR2lLTe-47" target="QDnQAPT0r1DDVJR2lLTe-4" edge="1">
          <mxGeometry width="50" height="50" relative="1" as="geometry">
            <mxPoint x="540" y="360" as="sourcePoint" />
            <mxPoint x="590" y="310" as="targetPoint" />
            <Array as="points">
              <mxPoint x="490" y="280" />
            </Array>
          </mxGeometry>
        </mxCell>
        <mxCell id="QDnQAPT0r1DDVJR2lLTe-129" value="Yes" style="edgeLabel;html=1;align=center;verticalAlign=middle;resizable=0;points=[];" parent="QDnQAPT0r1DDVJR2lLTe-127" vertex="1" connectable="0">
          <mxGeometry x="-0.8039" relative="1" as="geometry">
            <mxPoint as="offset" />
          </mxGeometry>
        </mxCell>
        <mxCell id="QDnQAPT0r1DDVJR2lLTe-132" value="" style="endArrow=classic;startArrow=classic;html=1;rounded=0;exitX=1;exitY=0.5;exitDx=0;exitDy=0;entryX=0;entryY=0.5;entryDx=0;entryDy=0;" parent="1" source="QDnQAPT0r1DDVJR2lLTe-92" target="QDnQAPT0r1DDVJR2lLTe-71" edge="1">
          <mxGeometry width="50" height="50" relative="1" as="geometry">
            <mxPoint x="540" y="468.5" as="sourcePoint" />
            <mxPoint x="590" y="418.5" as="targetPoint" />
          </mxGeometry>
        </mxCell>
        <mxCell id="QDnQAPT0r1DDVJR2lLTe-136" value="" style="endArrow=classic;startArrow=classic;html=1;rounded=0;exitX=1;exitY=0.5;exitDx=0;exitDy=0;entryX=0;entryY=0.5;entryDx=0;entryDy=0;" parent="1" source="QDnQAPT0r1DDVJR2lLTe-71" target="QDnQAPT0r1DDVJR2lLTe-6" edge="1">
          <mxGeometry width="50" height="50" relative="1" as="geometry">
            <mxPoint x="460" y="468.5" as="sourcePoint" />
            <mxPoint x="510" y="418.5" as="targetPoint" />
          </mxGeometry>
        </mxCell>
        <mxCell id="QDnQAPT0r1DDVJR2lLTe-137" value="Model evaluation" style="rhombus;whiteSpace=wrap;html=1;rounded=0;fillColor=none;gradientColor=none;" parent="1" vertex="1">
          <mxGeometry x="280" y="340" width="140" height="80" as="geometry" />
        </mxCell>
        <mxCell id="QDnQAPT0r1DDVJR2lLTe-140" value="" style="endArrow=classic;html=1;rounded=0;exitX=0.5;exitY=1;exitDx=0;exitDy=0;entryX=0.5;entryY=0;entryDx=0;entryDy=0;" parent="1" source="QDnQAPT0r1DDVJR2lLTe-137" target="QDnQAPT0r1DDVJR2lLTe-117" edge="1">
          <mxGeometry width="50" height="50" relative="1" as="geometry">
            <mxPoint x="410" y="490" as="sourcePoint" />
            <mxPoint x="460" y="440" as="targetPoint" />
          </mxGeometry>
        </mxCell>
        <mxCell id="QDnQAPT0r1DDVJR2lLTe-143" value="Model deployment" style="rhombus;whiteSpace=wrap;html=1;rounded=0;fillColor=none;gradientColor=none;" parent="1" vertex="1">
          <mxGeometry x="255" y="570" width="190" height="80" as="geometry" />
        </mxCell>
        <mxCell id="V0Qw61IKJjh0Ug3TLafj-18" style="edgeStyle=orthogonalEdgeStyle;rounded=0;orthogonalLoop=1;jettySize=auto;html=1;exitX=0.5;exitY=1;exitDx=0;exitDy=0;dashed=1;" parent="1" source="QDnQAPT0r1DDVJR2lLTe-145" target="V0Qw61IKJjh0Ug3TLafj-7" edge="1">
          <mxGeometry relative="1" as="geometry">
            <mxPoint x="1100" y="990" as="targetPoint" />
            <Array as="points">
              <mxPoint x="325" y="990" />
            </Array>
          </mxGeometry>
        </mxCell>
        <mxCell id="V0Qw61IKJjh0Ug3TLafj-19" value="No" style="edgeLabel;html=1;align=center;verticalAlign=middle;resizable=0;points=[];" parent="V0Qw61IKJjh0Ug3TLafj-18" vertex="1" connectable="0">
          <mxGeometry x="-0.8115" y="2" relative="1" as="geometry">
            <mxPoint as="offset" />
          </mxGeometry>
        </mxCell>
        <mxCell id="QDnQAPT0r1DDVJR2lLTe-145" value="Data Drift Detection" style="rhombus;whiteSpace=wrap;html=1;rounded=0;fillColor=#d5e8d4;strokeColor=#82b366;" parent="1" vertex="1">
          <mxGeometry x="250" y="910" width="150" height="60" as="geometry" />
        </mxCell>
        <mxCell id="QDnQAPT0r1DDVJR2lLTe-153" value="" style="edgeStyle=orthogonalEdgeStyle;rounded=0;orthogonalLoop=1;jettySize=auto;html=1;" parent="1" source="QDnQAPT0r1DDVJR2lLTe-147" target="QDnQAPT0r1DDVJR2lLTe-150" edge="1">
          <mxGeometry relative="1" as="geometry" />
        </mxCell>
        <mxCell id="QDnQAPT0r1DDVJR2lLTe-147" value="Data Preparation" style="rounded=0;whiteSpace=wrap;html=1;fillColor=#d5e8d4;strokeColor=#82b366;" parent="1" vertex="1">
          <mxGeometry x="485" y="920" width="120" height="60" as="geometry" />
        </mxCell>
        <mxCell id="QDnQAPT0r1DDVJR2lLTe-154" value="" style="edgeStyle=orthogonalEdgeStyle;rounded=0;orthogonalLoop=1;jettySize=auto;html=1;" parent="1" source="QDnQAPT0r1DDVJR2lLTe-150" target="QDnQAPT0r1DDVJR2lLTe-151" edge="1">
          <mxGeometry relative="1" as="geometry" />
        </mxCell>
        <mxCell id="QDnQAPT0r1DDVJR2lLTe-150" value="Model Training" style="rounded=0;whiteSpace=wrap;html=1;fillColor=#d5e8d4;strokeColor=#82b366;" parent="1" vertex="1">
          <mxGeometry x="675" y="920" width="120" height="60" as="geometry" />
        </mxCell>
        <mxCell id="QDnQAPT0r1DDVJR2lLTe-151" value="Model Evaluation" style="rounded=0;whiteSpace=wrap;html=1;fillColor=#d5e8d4;strokeColor=#82b366;" parent="1" vertex="1">
          <mxGeometry x="885" y="920" width="120" height="60" as="geometry" />
        </mxCell>
        <mxCell id="QDnQAPT0r1DDVJR2lLTe-156" style="edgeStyle=orthogonalEdgeStyle;rounded=0;orthogonalLoop=1;jettySize=auto;html=1;entryX=0.5;entryY=0;entryDx=0;entryDy=0;exitX=0.25;exitY=0;exitDx=0;exitDy=0;" parent="1" target="QDnQAPT0r1DDVJR2lLTe-150" edge="1">
          <mxGeometry relative="1" as="geometry">
            <Array as="points">
              <mxPoint x="935" y="900" />
              <mxPoint x="735" y="900" />
            </Array>
            <mxPoint x="935" y="920" as="sourcePoint" />
          </mxGeometry>
        </mxCell>
        <mxCell id="QDnQAPT0r1DDVJR2lLTe-157" value="Hyperparameter Tuning" style="edgeLabel;html=1;align=center;verticalAlign=middle;resizable=0;points=[];" parent="QDnQAPT0r1DDVJR2lLTe-156" vertex="1" connectable="0">
          <mxGeometry x="0.1608" y="-1" relative="1" as="geometry">
            <mxPoint as="offset" />
          </mxGeometry>
        </mxCell>
        <mxCell id="V0Qw61IKJjh0Ug3TLafj-3" value="" style="edgeStyle=orthogonalEdgeStyle;rounded=0;orthogonalLoop=1;jettySize=auto;html=1;entryX=0;entryY=0.5;entryDx=0;entryDy=0;" parent="1" target="V0Qw61IKJjh0Ug3TLafj-1" edge="1">
          <mxGeometry relative="1" as="geometry">
            <mxPoint x="965" y="920" as="sourcePoint" />
          </mxGeometry>
        </mxCell>
        <mxCell id="V0Qw61IKJjh0Ug3TLafj-46" style="edgeStyle=orthogonalEdgeStyle;rounded=0;orthogonalLoop=1;jettySize=auto;html=1;entryX=0.5;entryY=0;entryDx=0;entryDy=0;" parent="1" source="QDnQAPT0r1DDVJR2lLTe-158" target="QDnQAPT0r1DDVJR2lLTe-147" edge="1">
          <mxGeometry relative="1" as="geometry" />
        </mxCell>
        <mxCell id="QDnQAPT0r1DDVJR2lLTe-158" value="Data/Feature&lt;br&gt;Store" style="shape=cylinder3;whiteSpace=wrap;html=1;boundedLbl=1;backgroundOutline=1;size=15;rounded=0;fillColor=#f5f5f5;fontColor=#333333;strokeColor=#666666;" parent="1" vertex="1">
          <mxGeometry x="265" y="750" width="120" height="130" as="geometry" />
        </mxCell>
        <mxCell id="V0Qw61IKJjh0Ug3TLafj-58" style="edgeStyle=orthogonalEdgeStyle;rounded=0;orthogonalLoop=1;jettySize=auto;html=1;entryX=0.5;entryY=0;entryDx=0;entryDy=0;entryPerimeter=0;exitX=1;exitY=0.5;exitDx=0;exitDy=0;" parent="1" source="V0Qw61IKJjh0Ug3TLafj-1" target="V0Qw61IKJjh0Ug3TLafj-57" edge="1">
          <mxGeometry relative="1" as="geometry" />
        </mxCell>
        <mxCell id="V0Qw61IKJjh0Ug3TLafj-1" value="Trained Model" style="shape=document;whiteSpace=wrap;html=1;boundedLbl=1;fillColor=#d5e8d4;strokeColor=#82b366;" parent="1" vertex="1">
          <mxGeometry x="1005" y="760" width="120" height="70" as="geometry" />
        </mxCell>
        <mxCell id="V0Qw61IKJjh0Ug3TLafj-8" value="" style="edgeStyle=orthogonalEdgeStyle;rounded=0;orthogonalLoop=1;jettySize=auto;html=1;exitX=0.5;exitY=1;exitDx=0;exitDy=0;exitPerimeter=0;" parent="1" source="V0Qw61IKJjh0Ug3TLafj-57" target="V0Qw61IKJjh0Ug3TLafj-7" edge="1">
          <mxGeometry relative="1" as="geometry">
            <mxPoint x="1195" y="920" as="sourcePoint" />
          </mxGeometry>
        </mxCell>
        <mxCell id="V0Qw61IKJjh0Ug3TLafj-10" style="edgeStyle=orthogonalEdgeStyle;rounded=0;orthogonalLoop=1;jettySize=auto;html=1;entryX=1;entryY=0.5;entryDx=0;entryDy=0;exitX=0.5;exitY=1;exitDx=0;exitDy=0;" parent="1" source="V0Qw61IKJjh0Ug3TLafj-7" target="V0Qw61IKJjh0Ug3TLafj-9" edge="1">
          <mxGeometry relative="1" as="geometry">
            <Array as="points">
              <mxPoint x="1207" y="1076" />
            </Array>
          </mxGeometry>
        </mxCell>
        <mxCell id="V0Qw61IKJjh0Ug3TLafj-25" value="Output" style="edgeLabel;html=1;align=center;verticalAlign=middle;resizable=0;points=[];" parent="V0Qw61IKJjh0Ug3TLafj-10" vertex="1" connectable="0">
          <mxGeometry x="-0.676" y="4" relative="1" as="geometry">
            <mxPoint x="-174" y="15" as="offset" />
          </mxGeometry>
        </mxCell>
        <mxCell id="V0Qw61IKJjh0Ug3TLafj-7" value="&amp;nbsp;Model Serving" style="rounded=0;whiteSpace=wrap;html=1;fillColor=#d5e8d4;strokeColor=#82b366;" parent="1" vertex="1">
          <mxGeometry x="1147" y="970" width="120" height="60" as="geometry" />
        </mxCell>
        <mxCell id="V0Qw61IKJjh0Ug3TLafj-14" value="" style="edgeStyle=orthogonalEdgeStyle;rounded=0;orthogonalLoop=1;jettySize=auto;html=1;" parent="1" source="V0Qw61IKJjh0Ug3TLafj-9" target="V0Qw61IKJjh0Ug3TLafj-13" edge="1">
          <mxGeometry relative="1" as="geometry" />
        </mxCell>
        <mxCell id="V0Qw61IKJjh0Ug3TLafj-9" value="Performance monitoring" style="rounded=0;whiteSpace=wrap;html=1;glass=0;shadow=0;sketch=0;fillColor=#d5e8d4;strokeColor=#82b366;" parent="1" vertex="1">
          <mxGeometry x="880" y="1052.5" width="110" height="47.5" as="geometry" />
        </mxCell>
        <mxCell id="V0Qw61IKJjh0Ug3TLafj-16" value="" style="edgeStyle=orthogonalEdgeStyle;rounded=0;orthogonalLoop=1;jettySize=auto;html=1;" parent="1" source="V0Qw61IKJjh0Ug3TLafj-13" target="V0Qw61IKJjh0Ug3TLafj-15" edge="1">
          <mxGeometry relative="1" as="geometry" />
        </mxCell>
        <mxCell id="V0Qw61IKJjh0Ug3TLafj-24" value="Yes" style="edgeLabel;html=1;align=center;verticalAlign=middle;resizable=0;points=[];" parent="V0Qw61IKJjh0Ug3TLafj-16" vertex="1" connectable="0">
          <mxGeometry x="-0.35" relative="1" as="geometry">
            <mxPoint as="offset" />
          </mxGeometry>
        </mxCell>
        <mxCell id="V0Qw61IKJjh0Ug3TLafj-13" value="Performance Reduced?" style="rhombus;whiteSpace=wrap;html=1;rounded=0;shadow=0;glass=0;sketch=0;fillColor=#d5e8d4;strokeColor=#82b366;" parent="1" vertex="1">
          <mxGeometry x="665" y="1048.75" width="140" height="55" as="geometry" />
        </mxCell>
        <mxCell id="V0Qw61IKJjh0Ug3TLafj-56" style="edgeStyle=orthogonalEdgeStyle;rounded=0;orthogonalLoop=1;jettySize=auto;html=1;entryX=0;entryY=0.923;entryDx=0;entryDy=0;entryPerimeter=0;" parent="1" source="V0Qw61IKJjh0Ug3TLafj-15" target="V0Qw61IKJjh0Ug3TLafj-20" edge="1">
          <mxGeometry relative="1" as="geometry">
            <mxPoint x="370" y="1010" as="targetPoint" />
            <Array as="points">
              <mxPoint x="440" y="1070" />
              <mxPoint x="440" y="1010" />
            </Array>
          </mxGeometry>
        </mxCell>
        <mxCell id="V0Qw61IKJjh0Ug3TLafj-15" value="Trigger Retrain" style="ellipse;whiteSpace=wrap;html=1;rounded=0;shadow=0;glass=0;sketch=0;fillColor=#d5e8d4;strokeColor=#82b366;" parent="1" vertex="1">
          <mxGeometry x="495" y="1051.25" width="100" height="50" as="geometry" />
        </mxCell>
        <mxCell id="V0Qw61IKJjh0Ug3TLafj-22" value="" style="endArrow=classic;html=1;rounded=0;exitX=1;exitY=0.5;exitDx=0;exitDy=0;dashed=1;" parent="1" source="QDnQAPT0r1DDVJR2lLTe-145" edge="1">
          <mxGeometry width="50" height="50" relative="1" as="geometry">
            <mxPoint x="775" y="1070" as="sourcePoint" />
            <mxPoint x="460" y="940" as="targetPoint" />
          </mxGeometry>
        </mxCell>
        <mxCell id="V0Qw61IKJjh0Ug3TLafj-45" value="Yes" style="edgeLabel;html=1;align=center;verticalAlign=middle;resizable=0;points=[];" parent="V0Qw61IKJjh0Ug3TLafj-22" vertex="1" connectable="0">
          <mxGeometry x="-0.2889" y="3" relative="1" as="geometry">
            <mxPoint as="offset" />
          </mxGeometry>
        </mxCell>
        <mxCell id="V0Qw61IKJjh0Ug3TLafj-26" value="Output" style="endArrow=classic;html=1;rounded=0;exitX=1;exitY=0.5;exitDx=0;exitDy=0;" parent="1" source="V0Qw61IKJjh0Ug3TLafj-7" edge="1">
          <mxGeometry width="50" height="50" relative="1" as="geometry">
            <mxPoint x="925" y="1060" as="sourcePoint" />
            <mxPoint x="1340" y="1000" as="targetPoint" />
            <Array as="points">
              <mxPoint x="1320" y="1000" />
            </Array>
          </mxGeometry>
        </mxCell>
        <mxCell id="V0Qw61IKJjh0Ug3TLafj-39" value="" style="endArrow=classic;html=1;rounded=0;exitX=0;exitY=0.5;exitDx=0;exitDy=0;entryX=1;entryY=0.5;entryDx=0;entryDy=0;entryPerimeter=0;" parent="1" source="V0Qw61IKJjh0Ug3TLafj-43" target="V0Qw61IKJjh0Ug3TLafj-50" edge="1">
          <mxGeometry width="50" height="50" relative="1" as="geometry">
            <mxPoint x="1306" y="888.75" as="sourcePoint" />
            <mxPoint x="1285" y="888.125" as="targetPoint" />
          </mxGeometry>
        </mxCell>
        <mxCell id="V0Qw61IKJjh0Ug3TLafj-40" value="" style="endArrow=classic;startArrow=classic;html=1;rounded=0;exitX=1;exitY=0;exitDx=0;exitDy=30;exitPerimeter=0;entryX=0;entryY=0;entryDx=0;entryDy=30;entryPerimeter=0;" parent="1" source="V0Qw61IKJjh0Ug3TLafj-48" target="V0Qw61IKJjh0Ug3TLafj-50" edge="1">
          <mxGeometry width="50" height="50" relative="1" as="geometry">
            <mxPoint x="1203" y="910.63" as="sourcePoint" />
            <mxPoint x="1210" y="920" as="targetPoint" />
          </mxGeometry>
        </mxCell>
        <mxCell id="V0Qw61IKJjh0Ug3TLafj-43" value="MinIO Access Control" style="rounded=0;whiteSpace=wrap;html=1;shadow=0;glass=0;sketch=0;fillColor=#fff2cc;strokeColor=#d6b656;" parent="1" vertex="1">
          <mxGeometry x="1340" y="880" width="89" height="50" as="geometry" />
        </mxCell>
        <mxCell id="V0Qw61IKJjh0Ug3TLafj-48" value="Mlflow" style="shape=cylinder3;whiteSpace=wrap;html=1;boundedLbl=1;backgroundOutline=1;size=15;rounded=0;shadow=0;glass=0;sketch=0;fillColor=none;" parent="1" vertex="1">
          <mxGeometry x="1110" y="880" width="90" height="50" as="geometry" />
        </mxCell>
        <mxCell id="V0Qw61IKJjh0Ug3TLafj-50" value="MinIO &amp;nbsp;Bucket" style="shape=cylinder3;whiteSpace=wrap;html=1;boundedLbl=1;backgroundOutline=1;size=15;rounded=0;shadow=0;glass=0;sketch=0;fillColor=none;" parent="1" vertex="1">
          <mxGeometry x="1220" y="880" width="90" height="50" as="geometry" />
        </mxCell>
        <mxCell id="V0Qw61IKJjh0Ug3TLafj-52" value="" style="edgeStyle=orthogonalEdgeStyle;rounded=0;orthogonalLoop=1;jettySize=auto;html=1;dashed=1;exitX=1;exitY=0.5;exitDx=0;exitDy=0;" parent="1" source="gK53VHWFZF51HOCK_0e7-1" target="QDnQAPT0r1DDVJR2lLTe-145" edge="1">
          <mxGeometry relative="1" as="geometry">
            <mxPoint x="200" y="940" as="sourcePoint" />
          </mxGeometry>
        </mxCell>
        <mxCell id="V0Qw61IKJjh0Ug3TLafj-53" value="" style="endArrow=classic;startArrow=classic;html=1;rounded=0;dashed=1;entryX=0.5;entryY=1;entryDx=0;entryDy=0;entryPerimeter=0;" parent="1" source="QDnQAPT0r1DDVJR2lLTe-145" target="QDnQAPT0r1DDVJR2lLTe-158" edge="1">
          <mxGeometry width="50" height="50" relative="1" as="geometry">
            <mxPoint x="560" y="1020" as="sourcePoint" />
            <mxPoint x="610" y="970" as="targetPoint" />
          </mxGeometry>
        </mxCell>
        <mxCell id="gK53VHWFZF51HOCK_0e7-1" value="New Labeled Data" style="shape=parallelogram;perimeter=parallelogramPerimeter;whiteSpace=wrap;html=1;fixedSize=1;rounded=1;fillColor=#f5f5f5;fontColor=#333333;strokeColor=#666666;" vertex="1" parent="1">
          <mxGeometry x="100" y="910" width="120" height="60" as="geometry" />
        </mxCell>
        <mxCell id="gK53VHWFZF51HOCK_0e7-2" value="Inference data" style="shape=parallelogram;perimeter=parallelogramPerimeter;whiteSpace=wrap;html=1;fixedSize=1;rounded=1;fillColor=#f5f5f5;fontColor=#333333;strokeColor=#666666;" vertex="1" parent="1">
          <mxGeometry x="1030" y="50" width="120" height="60" as="geometry" />
        </mxCell>
        <mxCell id="gK53VHWFZF51HOCK_0e7-4" value="Inference result" style="shape=parallelogram;perimeter=parallelogramPerimeter;whiteSpace=wrap;html=1;fixedSize=1;rounded=0;fillColor=#f8cecc;strokeColor=#b85450;" vertex="1" parent="1">
          <mxGeometry x="1030" y="360" width="120" height="60" as="geometry" />
        </mxCell>
        <mxCell id="gK53VHWFZF51HOCK_0e7-6" value="Alert" style="shape=parallelogram;perimeter=parallelogramPerimeter;whiteSpace=wrap;html=1;fixedSize=1;rounded=0;fillColor=#f8cecc;strokeColor=#b85450;" vertex="1" parent="1">
          <mxGeometry x="1210" y="155" width="120" height="60" as="geometry" />
        </mxCell>
        <mxCell id="gK53VHWFZF51HOCK_0e7-7" value="Training data" style="shape=cylinder3;whiteSpace=wrap;html=1;boundedLbl=1;backgroundOutline=1;size=15;rounded=0;fillColor=#f5f5f5;fontColor=#333333;strokeColor=#666666;" vertex="1" parent="1">
          <mxGeometry x="850" y="120" width="120" height="130" as="geometry" />
        </mxCell>
        <mxCell id="gK53VHWFZF51HOCK_0e7-17" value="" style="edgeStyle=orthogonalEdgeStyle;rounded=0;orthogonalLoop=1;jettySize=auto;html=1;" edge="1" parent="1" source="gK53VHWFZF51HOCK_0e7-9">
          <mxGeometry relative="1" as="geometry">
            <mxPoint x="1615" y="235" as="targetPoint" />
          </mxGeometry>
        </mxCell>
        <mxCell id="gK53VHWFZF51HOCK_0e7-20" value="No" style="edgeLabel;html=1;align=center;verticalAlign=middle;resizable=0;points=[];" vertex="1" connectable="0" parent="gK53VHWFZF51HOCK_0e7-17">
          <mxGeometry x="-0.303" y="-2" relative="1" as="geometry">
            <mxPoint y="-1" as="offset" />
          </mxGeometry>
        </mxCell>
        <mxCell id="gK53VHWFZF51HOCK_0e7-18" value="" style="edgeStyle=orthogonalEdgeStyle;rounded=0;orthogonalLoop=1;jettySize=auto;html=1;" edge="1" parent="1" source="gK53VHWFZF51HOCK_0e7-9">
          <mxGeometry relative="1" as="geometry">
            <mxPoint x="1750" y="161" as="targetPoint" />
          </mxGeometry>
        </mxCell>
        <mxCell id="gK53VHWFZF51HOCK_0e7-19" value="Yes" style="edgeLabel;html=1;align=center;verticalAlign=middle;resizable=0;points=[];" vertex="1" connectable="0" parent="gK53VHWFZF51HOCK_0e7-18">
          <mxGeometry x="-0.0556" y="-1" relative="1" as="geometry">
            <mxPoint as="offset" />
          </mxGeometry>
        </mxCell>
        <mxCell id="gK53VHWFZF51HOCK_0e7-9" value="Data Drift Detection" style="rhombus;whiteSpace=wrap;html=1;rounded=0;fillColor=#d5e8d4;strokeColor=#82b366;" vertex="1" parent="1">
          <mxGeometry x="1540" y="131" width="150" height="60" as="geometry" />
        </mxCell>
        <mxCell id="gK53VHWFZF51HOCK_0e7-10" value="Data/Feature&lt;br&gt;Store" style="shape=cylinder3;whiteSpace=wrap;html=1;boundedLbl=1;backgroundOutline=1;size=15;rounded=0;fillColor=#f5f5f5;fontColor=#333333;strokeColor=#666666;" vertex="1" parent="1">
          <mxGeometry x="1555" y="-29" width="120" height="130" as="geometry" />
        </mxCell>
        <mxCell id="gK53VHWFZF51HOCK_0e7-12" value="" style="edgeStyle=orthogonalEdgeStyle;rounded=0;orthogonalLoop=1;jettySize=auto;html=1;dashed=1;exitX=1;exitY=0.5;exitDx=0;exitDy=0;" edge="1" parent="1" source="gK53VHWFZF51HOCK_0e7-14" target="gK53VHWFZF51HOCK_0e7-9">
          <mxGeometry relative="1" as="geometry">
            <mxPoint x="1490" y="161" as="sourcePoint" />
          </mxGeometry>
        </mxCell>
        <mxCell id="gK53VHWFZF51HOCK_0e7-13" value="" style="endArrow=classic;startArrow=classic;html=1;rounded=0;dashed=1;entryX=0.5;entryY=1;entryDx=0;entryDy=0;entryPerimeter=0;" edge="1" parent="1" source="gK53VHWFZF51HOCK_0e7-9" target="gK53VHWFZF51HOCK_0e7-10">
          <mxGeometry width="50" height="50" relative="1" as="geometry">
            <mxPoint x="1850" y="241" as="sourcePoint" />
            <mxPoint x="1900" y="191" as="targetPoint" />
          </mxGeometry>
        </mxCell>
        <mxCell id="gK53VHWFZF51HOCK_0e7-14" value="New Labeled Data" style="shape=parallelogram;perimeter=parallelogramPerimeter;whiteSpace=wrap;html=1;fixedSize=1;rounded=1;fillColor=#f5f5f5;fontColor=#333333;strokeColor=#666666;" vertex="1" parent="1">
          <mxGeometry x="1390" y="131" width="120" height="60" as="geometry" />
        </mxCell>
        <mxCell id="gK53VHWFZF51HOCK_0e7-21" value="Retrain Process" style="rounded=0;whiteSpace=wrap;html=1;" vertex="1" parent="1">
          <mxGeometry x="1751" y="131" width="120" height="60" as="geometry" />
        </mxCell>
        <mxCell id="gK53VHWFZF51HOCK_0e7-22" value="Model Serving Process" style="rounded=0;whiteSpace=wrap;html=1;" vertex="1" parent="1">
          <mxGeometry x="1555" y="235" width="120" height="60" as="geometry" />
        </mxCell>
        <mxCell id="gK53VHWFZF51HOCK_0e7-30" value="" style="edgeStyle=orthogonalEdgeStyle;rounded=0;orthogonalLoop=1;jettySize=auto;html=1;exitX=1;exitY=0.25;exitDx=0;exitDy=0;entryX=0;entryY=0.5;entryDx=0;entryDy=0;" edge="1" parent="1" source="gK53VHWFZF51HOCK_0e7-23" target="gK53VHWFZF51HOCK_0e7-27">
          <mxGeometry relative="1" as="geometry" />
        </mxCell>
        <mxCell id="gK53VHWFZF51HOCK_0e7-23" value="User" style="rounded=1;whiteSpace=wrap;html=1;" vertex="1" parent="1">
          <mxGeometry x="1837" y="753" width="82" height="118" as="geometry" />
        </mxCell>
        <mxCell id="gK53VHWFZF51HOCK_0e7-35" value="" style="edgeStyle=orthogonalEdgeStyle;rounded=0;orthogonalLoop=1;jettySize=auto;html=1;exitX=0;exitY=0.75;exitDx=0;exitDy=0;" edge="1" parent="1" source="gK53VHWFZF51HOCK_0e7-24" target="gK53VHWFZF51HOCK_0e7-33">
          <mxGeometry relative="1" as="geometry" />
        </mxCell>
        <mxCell id="gK53VHWFZF51HOCK_0e7-36" value="" style="edgeStyle=orthogonalEdgeStyle;rounded=0;orthogonalLoop=1;jettySize=auto;html=1;exitX=0.25;exitY=0;exitDx=0;exitDy=0;entryX=0.25;entryY=1;entryDx=0;entryDy=0;" edge="1" parent="1" source="gK53VHWFZF51HOCK_0e7-24" target="gK53VHWFZF51HOCK_0e7-26">
          <mxGeometry relative="1" as="geometry" />
        </mxCell>
        <mxCell id="gK53VHWFZF51HOCK_0e7-41" value="" style="edgeStyle=orthogonalEdgeStyle;rounded=0;orthogonalLoop=1;jettySize=auto;html=1;exitX=1;exitY=0.25;exitDx=0;exitDy=0;" edge="1" parent="1" source="gK53VHWFZF51HOCK_0e7-24" target="gK53VHWFZF51HOCK_0e7-38">
          <mxGeometry relative="1" as="geometry" />
        </mxCell>
        <mxCell id="gK53VHWFZF51HOCK_0e7-24" value="Function" style="rounded=1;whiteSpace=wrap;html=1;" vertex="1" parent="1">
          <mxGeometry x="2117" y="752" width="96" height="119" as="geometry" />
        </mxCell>
        <mxCell id="gK53VHWFZF51HOCK_0e7-45" value="" style="edgeStyle=orthogonalEdgeStyle;rounded=0;orthogonalLoop=1;jettySize=auto;html=1;" edge="1" parent="1" target="gK53VHWFZF51HOCK_0e7-39">
          <mxGeometry relative="1" as="geometry">
            <mxPoint x="2403" y="842" as="sourcePoint" />
          </mxGeometry>
        </mxCell>
        <mxCell id="gK53VHWFZF51HOCK_0e7-25" value="MinIO" style="rounded=1;whiteSpace=wrap;html=1;" vertex="1" parent="1">
          <mxGeometry x="2405" y="750" width="84" height="117" as="geometry" />
        </mxCell>
        <mxCell id="gK53VHWFZF51HOCK_0e7-37" value="" style="edgeStyle=orthogonalEdgeStyle;rounded=0;orthogonalLoop=1;jettySize=auto;html=1;exitX=0.75;exitY=1;exitDx=0;exitDy=0;entryX=0.75;entryY=0;entryDx=0;entryDy=0;" edge="1" parent="1" source="gK53VHWFZF51HOCK_0e7-26" target="gK53VHWFZF51HOCK_0e7-24">
          <mxGeometry relative="1" as="geometry" />
        </mxCell>
        <mxCell id="gK53VHWFZF51HOCK_0e7-26" value="LDAP" style="rounded=1;whiteSpace=wrap;html=1;" vertex="1" parent="1">
          <mxGeometry x="2118" y="622" width="94.5" height="62" as="geometry" />
        </mxCell>
        <mxCell id="gK53VHWFZF51HOCK_0e7-31" value="" style="edgeStyle=orthogonalEdgeStyle;rounded=0;orthogonalLoop=1;jettySize=auto;html=1;entryX=0;entryY=0.25;entryDx=0;entryDy=0;" edge="1" parent="1" source="gK53VHWFZF51HOCK_0e7-27" target="gK53VHWFZF51HOCK_0e7-24">
          <mxGeometry relative="1" as="geometry">
            <mxPoint x="2096" y="796" as="targetPoint" />
            <Array as="points">
              <mxPoint x="2094" y="782" />
              <mxPoint x="2096" y="782" />
            </Array>
          </mxGeometry>
        </mxCell>
        <mxCell id="gK53VHWFZF51HOCK_0e7-27" value="Bucket name" style="shape=parallelogram;perimeter=parallelogramPerimeter;whiteSpace=wrap;html=1;fixedSize=1;rounded=1;" vertex="1" parent="1">
          <mxGeometry x="1978" y="755" width="96" height="55" as="geometry" />
        </mxCell>
        <mxCell id="gK53VHWFZF51HOCK_0e7-34" value="" style="edgeStyle=orthogonalEdgeStyle;rounded=0;orthogonalLoop=1;jettySize=auto;html=1;entryX=1;entryY=0.75;entryDx=0;entryDy=0;" edge="1" parent="1" source="gK53VHWFZF51HOCK_0e7-33" target="gK53VHWFZF51HOCK_0e7-23">
          <mxGeometry relative="1" as="geometry" />
        </mxCell>
        <mxCell id="gK53VHWFZF51HOCK_0e7-33" value="Token" style="shape=parallelogram;perimeter=parallelogramPerimeter;whiteSpace=wrap;html=1;fixedSize=1;rounded=1;" vertex="1" parent="1">
          <mxGeometry x="1971" y="819" width="80" height="45" as="geometry" />
        </mxCell>
        <mxCell id="gK53VHWFZF51HOCK_0e7-42" value="" style="edgeStyle=orthogonalEdgeStyle;rounded=0;orthogonalLoop=1;jettySize=auto;html=1;" edge="1" parent="1" source="gK53VHWFZF51HOCK_0e7-38">
          <mxGeometry relative="1" as="geometry">
            <mxPoint x="2403" y="782" as="targetPoint" />
          </mxGeometry>
        </mxCell>
        <mxCell id="gK53VHWFZF51HOCK_0e7-38" value="Username&lt;br&gt;Password&lt;br&gt;Policy" style="shape=parallelogram;perimeter=parallelogramPerimeter;whiteSpace=wrap;html=1;fixedSize=1;rounded=1;" vertex="1" parent="1">
          <mxGeometry x="2254" y="755" width="96" height="55" as="geometry" />
        </mxCell>
        <mxCell id="gK53VHWFZF51HOCK_0e7-44" value="" style="edgeStyle=orthogonalEdgeStyle;rounded=0;orthogonalLoop=1;jettySize=auto;html=1;entryX=1;entryY=0.75;entryDx=0;entryDy=0;" edge="1" parent="1" source="gK53VHWFZF51HOCK_0e7-39" target="gK53VHWFZF51HOCK_0e7-24">
          <mxGeometry relative="1" as="geometry" />
        </mxCell>
        <mxCell id="gK53VHWFZF51HOCK_0e7-39" value="Token" style="shape=parallelogram;perimeter=parallelogramPerimeter;whiteSpace=wrap;html=1;fixedSize=1;rounded=1;" vertex="1" parent="1">
          <mxGeometry x="2246" y="819" width="80" height="45" as="geometry" />
        </mxCell>
        <mxCell id="gK53VHWFZF51HOCK_0e7-46" value="Token&lt;br&gt;Bucket/Object name" style="shape=parallelogram;perimeter=parallelogramPerimeter;whiteSpace=wrap;html=1;fixedSize=1;rounded=1;" vertex="1" parent="1">
          <mxGeometry x="2102.5" y="885" width="125" height="45" as="geometry" />
        </mxCell>
        <mxCell id="gK53VHWFZF51HOCK_0e7-47" value="" style="endArrow=classic;html=1;rounded=0;exitX=0.75;exitY=1;exitDx=0;exitDy=0;entryX=0;entryY=0.5;entryDx=0;entryDy=0;" edge="1" parent="1" source="gK53VHWFZF51HOCK_0e7-23" target="gK53VHWFZF51HOCK_0e7-46">
          <mxGeometry width="50" height="50" relative="1" as="geometry">
            <mxPoint x="2167" y="803" as="sourcePoint" />
            <mxPoint x="2217" y="753" as="targetPoint" />
            <Array as="points">
              <mxPoint x="1899" y="908" />
            </Array>
          </mxGeometry>
        </mxCell>
        <mxCell id="gK53VHWFZF51HOCK_0e7-48" value="" style="endArrow=classic;html=1;rounded=0;exitX=1;exitY=0.5;exitDx=0;exitDy=0;entryX=0.25;entryY=1;entryDx=0;entryDy=0;" edge="1" parent="1" source="gK53VHWFZF51HOCK_0e7-46" target="gK53VHWFZF51HOCK_0e7-25">
          <mxGeometry width="50" height="50" relative="1" as="geometry">
            <mxPoint x="2167" y="803" as="sourcePoint" />
            <mxPoint x="2217" y="753" as="targetPoint" />
            <Array as="points">
              <mxPoint x="2426" y="905" />
            </Array>
          </mxGeometry>
        </mxCell>
        <mxCell id="gK53VHWFZF51HOCK_0e7-49" value="Requested file" style="shape=document;whiteSpace=wrap;html=1;boundedLbl=1;rounded=1;" vertex="1" parent="1">
          <mxGeometry x="2106" y="944" width="112.5" height="54" as="geometry" />
        </mxCell>
        <mxCell id="gK53VHWFZF51HOCK_0e7-50" value="" style="endArrow=classic;html=1;rounded=0;entryX=0.339;entryY=1.005;entryDx=0;entryDy=0;entryPerimeter=0;exitX=0;exitY=0.5;exitDx=0;exitDy=0;" edge="1" parent="1" source="gK53VHWFZF51HOCK_0e7-49" target="gK53VHWFZF51HOCK_0e7-23">
          <mxGeometry width="50" height="50" relative="1" as="geometry">
            <mxPoint x="2167" y="889" as="sourcePoint" />
            <mxPoint x="2217" y="839" as="targetPoint" />
            <Array as="points">
              <mxPoint x="1865" y="971" />
            </Array>
          </mxGeometry>
        </mxCell>
        <mxCell id="gK53VHWFZF51HOCK_0e7-51" value="" style="endArrow=classic;html=1;rounded=0;exitX=0.75;exitY=1;exitDx=0;exitDy=0;entryX=1;entryY=0.5;entryDx=0;entryDy=0;" edge="1" parent="1" source="gK53VHWFZF51HOCK_0e7-25" target="gK53VHWFZF51HOCK_0e7-49">
          <mxGeometry width="50" height="50" relative="1" as="geometry">
            <mxPoint x="2129" y="889" as="sourcePoint" />
            <mxPoint x="2182" y="844" as="targetPoint" />
            <Array as="points">
              <mxPoint x="2468" y="968" />
            </Array>
          </mxGeometry>
        </mxCell>
      </root>
    </mxGraphModel>
  </diagram>
</mxfile>
